<svg xmlns="http://www.w3.org/2000/svg" viewBox="0 0 420 380" fill="none" stroke="#F5EFE8" stroke-width="1.6" stroke-linecap="round" stroke-linejoin="round"><path d="M90 54 l7.280000000000001 17.16 18.72 8.84 -18.72 8.84 -7.280000000000001 17.16 -7.280000000000001 -17.16 -18.72 -8.84 18.72 -8.84 z" stroke="#E8633A" stroke-width="2"/><path d="M300 36 l3.9200000000000004 9.24 10.08 4.760000000000001 -10.08 4.760000000000001 -3.9200000000000004 9.24 -3.9200000000000004 -9.24 -10.08 -4.760000000000001 10.08 -4.760000000000001 z" stroke="#F5EFE8" stroke-width="1.6"/><path d="M360 150 l5.6000000000000005 13.200000000000001 14.399999999999999 6.800000000000001 -14.399999999999999 6.800000000000001 -5.6000000000000005 13.200000000000001 -5.6000000000000005 -13.200000000000001 -14.399999999999999 -6.800000000000001 14.399999999999999 -6.800000000000001 z" stroke="#F2C14E" stroke-width="1.6"/><path d="M60 248 l3.3600000000000003 7.92 8.64 4.08 -8.64 4.08 -3.3600000000000003 7.92 -3.3600000000000003 -7.92 -8.64 -4.08 8.64 -4.08 z" stroke="#F5EFE8" stroke-width="1.6"/><path d="M220 306 l6.720000000000001 15.84 17.28 8.16 -17.28 8.16 -6.720000000000001 15.84 -6.720000000000001 -15.84 -17.28 -8.16 17.28 -8.16 z" stroke="#E8633A" stroke-width="1.8"/><path d="M350 290 l2.8000000000000003 6.6000000000000005 7.199999999999999 3.4000000000000004 -7.199999999999999 3.4000000000000004 -2.8000000000000003 6.6000000000000005 -2.8000000000000003 -6.6000000000000005 -7.199999999999999 -3.4000000000000004 7.199999999999999 -3.4000000000000004 z" stroke="#F5EFE8" stroke-width="1.6"/><path d="M104 92 L290 56 M310 62 L350 158 M352 184 L235 316 M205 320 L70 268 M66 248 L84 102" stroke-dasharray="2 7" opacity="0.7"/><circle cx="170" cy="180" r="3" fill="#F5EFE8" stroke="none" opacity="0.8"/><circle cx="255" cy="140" r="2.4" fill="#F2C14E" stroke="none" opacity="0.8"/><circle cx="130" cy="290" r="2.4" fill="#E8633A" stroke="none" opacity="0.8"/></svg>